<svg id="splitsvg" version="1.1" xmlns="http://www.w3.org/2000/svg" xmlns:xlink="http://www.w3.org/1999/xlink" width="1380" height="1320"><g id="svgg"><path id="path0" d="M194.301 32.700 C 191.386 36.605,188.791 40.070,188.535 40.400 C 186.995 42.384,173.126 61.038,171.800 62.909 C 169.329 66.394,171.558 67.135,148.600 55.201 C 146.400 54.057,141.810 51.675,138.400 49.908 C 134.990 48.140,130.760 45.931,129.000 44.997 C 124.599 42.664,124.070 42.529,123.848 43.677 C 123.215 46.951,122.054 52.767,121.588 55.000 C 121.404 55.880,121.049 57.770,120.800 59.200 C 120.551 60.630,120.193 62.520,120.006 63.400 C 119.486 65.840,118.882 68.951,116.006 84.000 C 115.312 87.630,114.570 91.029,114.356 91.554 L 113.968 92.508 104.884 92.267 C 75.367 91.484,67.584 91.227,65.700 90.976 C 62.863 90.599,62.728 89.159,67.073 105.600 C 67.858 108.570,68.646 111.630,68.824 112.400 C 69.001 113.170,69.324 114.430,69.542 115.200 C 69.759 115.970,70.228 117.770,70.584 119.200 C 70.941 120.630,71.429 122.520,71.670 123.400 C 71.911 124.280,72.252 125.540,72.427 126.200 C 72.602 126.860,72.962 128.210,73.227 129.200 C 74.142 132.624,74.348 133.408,74.800 135.200 C 75.050 136.190,75.422 137.553,75.627 138.228 C 76.309 140.475,76.608 140.233,69.000 143.599 C 67.900 144.086,66.460 144.724,65.800 145.018 C 65.140 145.311,61.090 147.100,56.800 148.993 C 52.510 150.886,48.640 152.598,48.200 152.798 C 47.760 152.998,45.807 153.890,43.860 154.781 C 41.913 155.671,40.253 156.400,40.170 156.400 C 39.937 156.400,34.781 158.729,33.062 159.611 C 32.216 160.045,31.293 160.400,31.011 160.400 C 28.897 160.400,29.612 161.541,37.151 170.205 C 37.728 170.868,39.550 173.027,41.200 175.002 C 42.850 176.978,44.529 178.955,44.932 179.397 C 45.334 179.839,47.403 182.270,49.530 184.800 C 51.656 187.330,53.623 189.639,53.901 189.932 C 56.519 192.687,61.999 199.681,61.996 200.262 C 61.993 200.668,61.318 201.723,60.496 202.606 C 59.673 203.490,58.010 205.380,56.800 206.806 C 55.590 208.233,54.212 209.850,53.737 210.400 C 53.263 210.950,50.673 214.010,47.982 217.200 C 41.152 225.297,39.579 227.153,38.168 228.780 C 37.491 229.561,36.477 230.740,35.916 231.400 C 35.355 232.060,33.721 233.949,32.285 235.598 C 30.849 237.247,29.767 238.747,29.881 238.931 C 30.107 239.296,34.337 241.288,40.400 243.884 C 42.051 244.591,44.169 245.535,47.200 246.918 C 48.410 247.469,53.810 249.850,59.200 252.208 C 76.034 259.572,76.000 259.556,76.000 259.959 C 76.000 260.274,74.428 266.436,73.540 269.600 C 73.165 270.936,72.851 272.165,72.032 275.500 C 71.829 276.325,71.301 278.350,70.858 280.000 C 70.415 281.650,69.517 285.070,68.863 287.600 C 68.209 290.130,66.819 295.440,65.773 299.400 C 64.727 303.360,63.787 307.214,63.685 307.963 L 63.498 309.327 67.649 309.043 C 69.932 308.887,77.920 308.596,85.400 308.397 C 92.880 308.198,102.366 307.910,106.480 307.755 L 113.960 307.475 114.357 308.437 C 114.575 308.967,115.315 312.370,116.000 316.000 C 117.621 324.582,119.376 333.620,120.000 336.600 C 120.184 337.480,120.524 339.190,120.754 340.400 C 121.175 342.608,121.343 343.467,122.009 346.800 C 122.466 349.085,123.107 352.481,123.524 354.815 C 124.050 357.766,124.063 357.768,128.116 355.644 C 130.142 354.581,134.320 352.401,137.400 350.798 C 140.480 349.196,144.530 347.068,146.400 346.070 C 149.953 344.173,162.371 337.712,166.732 335.490 L 169.263 334.200 170.332 335.419 C 170.919 336.089,171.790 337.169,172.267 337.819 C 174.011 340.194,188.067 359.018,188.532 359.600 C 188.796 359.930,189.456 360.830,190.000 361.600 C 190.544 362.370,191.204 363.270,191.468 363.600 C 191.732 363.930,193.424 366.180,195.229 368.600 C 197.034 371.020,198.846 373.355,199.255 373.788 C 199.979 374.556,199.998 370.181,199.998 200.088 C 199.998 104.120,199.909 25.600,199.799 25.600 C 199.690 25.600,197.216 28.795,194.301 32.700  M -25 0 L -5 0 L -5 20 L -25 20 Z M 405 0 L 425 0 L 425 20 L 405 20 Z" stroke="none" fill="#f6cd37" fill-rule="evenodd" transform="translate(30,0)"></path><path id="path1" d="M182.355 0.178 C 182.258 0.276,180.518 0.389,178.489 0.431 C 176.460 0.472,174.800 0.661,174.800 0.853 C 174.800 1.044,173.551 1.200,172.024 1.200 C 170.497 1.200,169.136 1.380,169.000 1.600 C 168.864 1.820,167.863 2.000,166.776 2.000 C 165.689 2.000,164.800 2.180,164.800 2.400 C 164.800 2.622,163.733 2.800,162.400 2.800 C 161.067 2.800,160.000 2.978,160.000 3.200 C 160.000 3.420,159.280 3.600,158.400 3.600 C 157.520 3.600,156.800 3.780,156.800 4.000 C 156.800 4.220,156.091 4.400,155.224 4.400 C 154.357 4.400,153.536 4.580,153.400 4.800 C 153.264 5.020,152.353 5.200,151.376 5.200 C 150.399 5.200,149.600 5.380,149.600 5.600 C 149.600 5.820,148.970 6.000,148.200 6.000 C 147.430 6.000,146.800 6.180,146.800 6.400 C 146.800 6.620,146.159 6.800,145.376 6.800 C 144.529 6.800,144.053 6.962,144.200 7.200 C 144.344 7.433,143.937 7.600,143.224 7.600 C 142.551 7.600,142.000 7.755,142.000 7.944 C 142.000 8.133,140.984 8.393,139.743 8.521 C 138.502 8.649,137.296 8.944,137.063 9.177 C 136.830 9.410,136.314 9.600,135.915 9.600 C 135.516 9.600,134.877 9.767,134.495 9.971 C 133.477 10.514,132.333 10.901,131.200 11.086 C 130.650 11.176,130.029 11.418,129.820 11.625 C 129.611 11.831,129.116 12.000,128.720 12.000 C 128.324 12.000,128.000 12.147,128.000 12.328 C 128.000 12.508,127.100 12.900,126.000 13.200 C 124.900 13.500,124.000 13.892,124.000 14.072 C 124.000 14.253,123.644 14.400,123.210 14.400 C 122.775 14.400,121.830 14.759,121.110 15.199 C 120.389 15.638,119.485 15.998,119.100 15.999 C 118.715 15.999,118.400 16.180,118.400 16.400 C 118.400 16.620,118.040 16.800,117.600 16.800 C 117.160 16.800,116.800 16.980,116.800 17.200 C 116.800 17.420,116.440 17.600,116.000 17.600 C 115.560 17.600,115.200 17.780,115.200 18.000 C 115.200 18.220,114.750 18.400,114.200 18.400 C 113.650 18.400,113.200 18.580,113.200 18.800 C 113.200 19.020,112.928 19.200,112.595 19.200 C 111.928 19.200,110.537 19.919,109.683 20.704 C 109.382 20.981,108.970 21.105,108.768 20.980 C 108.565 20.855,108.400 20.943,108.400 21.176 C 108.400 21.409,108.040 21.600,107.600 21.600 C 107.160 21.600,106.800 21.748,106.800 21.929 C 106.800 22.109,105.900 22.664,104.800 23.161 C 103.700 23.658,102.800 24.231,102.800 24.433 C 102.800 24.635,102.545 24.800,102.232 24.800 C 101.565 24.800,99.060 26.065,98.867 26.500 C 98.793 26.665,98.388 26.800,97.967 26.800 C 97.545 26.800,97.200 26.947,97.200 27.126 C 97.200 27.306,96.435 27.873,95.500 28.386 C 94.565 28.899,93.485 29.590,93.100 29.921 C 92.715 30.253,92.400 30.379,92.400 30.201 C 92.400 30.023,92.064 30.265,91.653 30.739 C 91.242 31.212,90.652 31.600,90.341 31.600 C 90.031 31.600,89.517 31.960,89.200 32.400 C 88.883 32.840,88.343 33.200,88.000 33.200 C 87.657 33.200,87.117 33.560,86.800 34.000 C 86.483 34.440,85.991 34.800,85.708 34.800 C 85.425 34.800,84.628 35.340,83.937 36.000 C 83.246 36.660,82.520 37.200,82.322 37.200 C 82.125 37.200,81.510 37.653,80.956 38.208 C 80.402 38.762,79.752 39.094,79.512 38.946 C 79.251 38.785,79.191 38.862,79.362 39.138 C 79.519 39.392,79.497 39.600,79.313 39.600 C 79.129 39.600,78.353 40.144,77.589 40.809 C 75.500 42.628,75.200 42.853,75.200 42.598 C 75.200 42.469,74.742 42.822,74.182 43.382 C 73.622 43.942,72.996 44.400,72.791 44.400 C 72.585 44.400,71.427 45.390,70.217 46.600 C 69.007 47.810,67.877 48.800,67.705 48.800 C 67.533 48.800,67.168 49.160,66.893 49.600 C 66.618 50.040,66.234 50.400,66.039 50.400 C 65.845 50.400,64.091 52.016,62.143 53.991 C 57.834 58.358,58.358 57.834,53.991 62.143 C 52.016 64.091,50.400 65.845,50.400 66.039 C 50.400 66.234,50.040 66.618,49.600 66.893 C 49.160 67.168,48.800 67.533,48.800 67.705 C 48.800 67.877,47.810 69.007,46.600 70.217 C 45.390 71.427,44.400 72.585,44.400 72.791 C 44.400 72.996,43.942 73.622,43.382 74.182 C 42.822 74.742,42.469 75.200,42.598 75.200 C 42.853 75.200,42.628 75.500,40.809 77.589 C 40.144 78.353,39.600 79.129,39.600 79.313 C 39.600 79.497,39.392 79.519,39.138 79.362 C 38.862 79.191,38.785 79.251,38.946 79.512 C 39.094 79.752,38.762 80.402,38.208 80.956 C 37.653 81.510,37.200 82.125,37.200 82.322 C 37.200 82.520,36.660 83.246,36.000 83.937 C 35.340 84.628,34.800 85.425,34.800 85.708 C 34.800 85.991,34.440 86.483,34.000 86.800 C 33.560 87.117,33.200 87.657,33.200 88.000 C 33.200 88.343,32.840 88.883,32.400 89.200 C 31.960 89.517,31.600 90.031,31.600 90.341 C 31.600 90.652,31.212 91.242,30.739 91.653 C 30.265 92.064,30.023 92.400,30.201 92.400 C 30.379 92.400,30.253 92.715,29.921 93.100 C 29.590 93.485,28.899 94.565,28.386 95.500 C 27.873 96.435,27.306 97.200,27.126 97.200 C 26.947 97.200,26.800 97.545,26.800 97.967 C 26.800 98.388,26.665 98.793,26.500 98.867 C 26.065 99.060,24.800 101.565,24.800 102.232 C 24.800 102.545,24.635 102.800,24.433 102.800 C 24.231 102.800,23.658 103.700,23.161 104.800 C 22.664 105.900,22.109 106.800,21.929 106.800 C 21.748 106.800,21.600 107.160,21.600 107.600 C 21.600 108.040,21.409 108.400,21.176 108.400 C 20.943 108.400,20.855 108.565,20.980 108.768 C 21.105 108.970,20.981 109.382,20.704 109.683 C 19.919 110.537,19.200 111.928,19.200 112.595 C 19.200 112.928,19.020 113.200,18.800 113.200 C 18.580 113.200,18.400 113.650,18.400 114.200 C 18.400 114.750,18.220 115.200,18.000 115.200 C 17.780 115.200,17.600 115.560,17.600 116.000 C 17.600 116.440,17.420 116.800,17.200 116.800 C 16.980 116.800,16.800 117.160,16.800 117.600 C 16.800 118.040,16.620 118.400,16.400 118.400 C 16.180 118.400,15.999 118.715,15.999 119.100 C 15.998 119.485,15.638 120.389,15.199 121.110 C 14.759 121.830,14.400 122.775,14.400 123.210 C 14.400 123.644,14.253 124.000,14.072 124.000 C 13.892 124.000,13.500 124.900,13.200 126.000 C 12.900 127.100,12.508 128.000,12.328 128.000 C 12.147 128.000,12.000 128.324,12.000 128.720 C 12.000 129.116,11.831 129.611,11.625 129.820 C 11.418 130.029,11.176 130.650,11.086 131.200 C 10.901 132.333,10.514 133.477,9.971 134.495 C 9.767 134.877,9.600 135.516,9.600 135.915 C 9.600 136.314,9.410 136.830,9.177 137.063 C 8.944 137.296,8.649 138.502,8.521 139.743 C 8.393 140.984,8.133 142.000,7.944 142.000 C 7.755 142.000,7.600 142.551,7.600 143.224 C 7.600 143.937,7.433 144.344,7.200 144.200 C 6.962 144.053,6.800 144.529,6.800 145.376 C 6.800 146.159,6.620 146.800,6.400 146.800 C 6.180 146.800,6.000 147.430,6.000 148.200 C 6.000 148.970,5.820 149.600,5.600 149.600 C 5.380 149.600,5.200 150.399,5.200 151.376 C 5.200 152.353,5.020 153.264,4.800 153.400 C 4.580 153.536,4.400 154.357,4.400 155.224 C 4.400 156.091,4.220 156.800,4.000 156.800 C 3.780 156.800,3.600 157.520,3.600 158.400 C 3.600 159.280,3.420 160.000,3.200 160.000 C 2.978 160.000,2.800 161.067,2.800 162.400 C 2.800 163.733,2.622 164.800,2.400 164.800 C 2.180 164.800,2.000 165.689,2.000 166.776 C 2.000 167.863,1.820 168.864,1.600 169.000 C 1.380 169.136,1.200 170.497,1.200 172.024 C 1.200 173.551,1.044 174.800,0.853 174.800 C 0.341 174.800,0.200 180.188,0.200 199.800 C 0.200 219.594,0.344 225.200,0.851 225.200 C 1.043 225.200,1.200 226.449,1.200 227.976 C 1.200 229.503,1.380 230.864,1.600 231.000 C 1.820 231.136,2.000 232.227,2.000 233.424 C 2.000 234.621,2.180 235.600,2.400 235.600 C 2.620 235.600,2.800 236.489,2.800 237.576 C 2.800 238.663,2.980 239.664,3.200 239.800 C 3.420 239.936,3.600 240.757,3.600 241.624 C 3.600 242.491,3.780 243.200,4.000 243.200 C 4.220 243.200,4.400 243.920,4.400 244.800 C 4.400 245.680,4.580 246.400,4.800 246.400 C 5.020 246.400,5.200 247.300,5.200 248.400 C 5.200 249.500,5.380 250.400,5.600 250.400 C 5.820 250.400,6.000 251.030,6.000 251.800 C 6.000 252.570,6.180 253.200,6.400 253.200 C 6.620 253.200,6.800 253.841,6.800 254.624 C 6.800 255.471,6.962 255.947,7.200 255.800 C 7.541 255.589,7.832 257.407,7.637 258.530 C 7.606 258.711,7.765 258.745,7.990 258.606 C 8.235 258.454,8.400 258.838,8.400 259.562 C 8.400 260.693,9.186 263.572,9.994 265.400 C 10.188 265.840,10.564 266.920,10.830 267.800 C 11.095 268.680,11.670 270.210,12.107 271.200 C 12.544 272.190,13.080 273.450,13.297 274.000 C 13.515 274.550,13.852 275.313,14.047 275.695 C 14.241 276.077,14.400 276.668,14.400 277.009 C 14.400 277.349,14.691 278.072,15.046 278.614 C 15.401 279.156,15.536 279.603,15.346 279.606 C 15.156 279.609,15.180 279.744,15.400 279.906 C 15.988 280.338,16.800 281.897,16.800 282.595 C 16.800 282.928,16.980 283.200,17.200 283.200 C 17.420 283.200,17.600 283.560,17.600 284.000 C 17.600 284.440,17.780 284.800,18.000 284.800 C 18.220 284.800,18.400 285.143,18.400 285.562 C 18.400 286.378,20.001 289.712,20.500 289.933 C 20.665 290.007,20.800 290.397,20.800 290.800 C 20.800 291.203,20.945 291.593,21.121 291.667 C 21.298 291.740,22.049 293.015,22.790 294.500 C 23.530 295.985,24.286 297.200,24.468 297.200 C 24.651 297.200,24.800 297.410,24.800 297.666 C 24.800 298.412,26.123 301.200,26.477 301.200 C 26.655 301.200,26.800 301.478,26.800 301.817 C 26.800 302.156,27.131 302.789,27.536 303.223 C 27.941 303.658,28.518 304.505,28.819 305.107 C 29.119 305.708,29.626 306.515,29.945 306.900 C 30.263 307.285,30.398 307.600,30.244 307.600 C 30.090 307.600,30.425 308.062,30.989 308.626 C 31.554 309.190,31.931 309.787,31.829 309.953 C 31.727 310.119,31.993 310.507,32.421 310.815 C 32.850 311.124,33.200 311.562,33.200 311.788 C 33.201 312.015,33.647 312.718,34.192 313.352 C 34.737 313.986,35.069 314.689,34.930 314.914 C 34.784 315.149,34.873 315.202,35.138 315.038 C 35.412 314.869,35.600 315.007,35.600 315.376 C 35.600 315.719,35.738 316.000,35.906 316.000 C 36.074 316.000,36.656 316.720,37.200 317.600 C 37.744 318.480,38.326 319.200,38.494 319.200 C 38.662 319.200,38.800 319.571,38.800 320.024 C 38.800 320.477,38.980 320.736,39.200 320.600 C 39.420 320.464,39.600 320.498,39.600 320.676 C 39.601 320.854,40.018 321.484,40.527 322.076 C 41.036 322.668,41.801 323.628,42.226 324.209 C 42.652 324.790,43.315 325.638,43.700 326.094 C 44.085 326.549,44.400 327.047,44.400 327.200 C 44.400 327.352,45.390 328.483,46.600 329.712 C 47.810 330.942,48.800 332.052,48.800 332.179 C 48.800 332.593,51.346 335.263,58.029 341.858 C 58.220 342.046,59.994 343.865,61.972 345.900 C 63.951 347.935,65.767 349.600,66.008 349.600 C 66.250 349.600,66.336 349.780,66.200 350.000 C 66.064 350.220,66.204 350.400,66.512 350.400 C 66.819 350.400,68.306 351.570,69.815 353.000 C 71.325 354.430,72.696 355.600,72.862 355.600 C 73.028 355.600,73.622 356.058,74.182 356.618 C 74.742 357.178,75.200 357.538,75.200 357.418 C 75.200 357.210,75.491 357.445,77.772 359.500 C 78.322 359.995,78.968 360.400,79.209 360.400 C 79.450 360.400,79.536 360.580,79.400 360.800 C 79.264 361.020,79.523 361.200,79.976 361.200 C 80.429 361.200,80.800 361.338,80.800 361.506 C 80.800 361.674,81.520 362.256,82.400 362.800 C 83.280 363.344,84.000 363.926,84.000 364.094 C 84.000 364.262,84.281 364.400,84.624 364.400 C 84.993 364.400,85.131 364.588,84.962 364.862 C 84.798 365.127,84.851 365.216,85.086 365.070 C 85.311 364.931,86.014 365.263,86.648 365.808 C 87.282 366.353,87.985 366.799,88.212 366.800 C 88.438 366.800,88.883 367.160,89.200 367.600 C 89.517 368.040,90.031 368.400,90.341 368.400 C 90.652 368.400,91.242 368.788,91.653 369.261 C 92.064 369.735,92.400 369.977,92.400 369.799 C 92.400 369.621,92.715 369.737,93.100 370.055 C 93.485 370.374,94.292 370.881,94.893 371.181 C 95.495 371.482,96.312 372.014,96.709 372.364 C 97.106 372.714,97.633 373.040,97.881 373.088 C 98.128 373.137,99.001 373.632,99.821 374.188 C 100.641 374.745,101.647 375.200,102.056 375.200 C 102.465 375.200,102.800 375.349,102.800 375.532 C 102.800 375.714,104.015 376.470,105.500 377.210 C 106.985 377.951,108.260 378.702,108.333 378.879 C 108.407 379.055,108.767 379.204,109.133 379.209 C 109.500 379.214,110.250 379.570,110.800 380.000 C 111.350 380.430,112.104 380.786,112.476 380.791 C 112.848 380.796,113.264 380.980,113.400 381.200 C 113.536 381.420,113.997 381.600,114.424 381.600 C 114.851 381.600,115.200 381.780,115.200 382.000 C 115.200 382.220,115.560 382.400,116.000 382.400 C 116.440 382.400,116.800 382.580,116.800 382.800 C 116.800 383.020,117.072 383.200,117.405 383.200 C 117.995 383.200,119.598 383.963,120.000 384.435 C 120.110 384.564,121.055 384.918,122.100 385.222 C 123.145 385.526,124.000 385.915,124.000 386.087 C 124.000 386.259,124.540 386.400,125.200 386.400 C 125.860 386.400,126.400 386.580,126.400 386.800 C 126.400 387.020,126.760 387.200,127.200 387.200 C 127.640 387.200,128.000 387.380,128.000 387.600 C 128.000 387.820,128.272 388.000,128.605 388.000 C 128.938 388.000,129.523 388.158,129.905 388.351 C 130.287 388.544,131.320 388.916,132.200 389.177 C 133.080 389.439,134.160 389.796,134.600 389.972 C 136.846 390.867,139.523 391.604,140.524 391.602 C 141.189 391.601,141.544 391.767,141.394 392.010 C 141.255 392.235,141.289 392.394,141.470 392.363 C 142.593 392.168,144.411 392.459,144.200 392.800 C 144.053 393.038,144.529 393.200,145.376 393.200 C 146.159 393.200,146.800 393.380,146.800 393.600 C 146.800 393.820,147.419 394.000,148.176 394.000 C 148.933 394.000,149.664 394.180,149.800 394.400 C 149.936 394.620,150.857 394.800,151.847 394.800 C 152.945 394.800,153.551 394.956,153.400 395.200 C 153.249 395.444,153.863 395.600,154.976 395.600 C 155.979 395.600,156.800 395.780,156.800 396.000 C 156.800 396.220,157.509 396.400,158.376 396.400 C 159.243 396.400,160.064 396.580,160.200 396.800 C 160.336 397.020,161.437 397.200,162.647 397.200 C 164.012 397.200,164.753 397.352,164.600 397.600 C 164.447 397.848,165.188 398.000,166.553 398.000 C 167.763 398.000,168.864 398.180,169.000 398.400 C 169.136 398.620,170.497 398.800,172.024 398.800 C 173.551 398.800,174.800 398.950,174.800 399.133 C 174.800 399.564,173.942 399.518,187.900 399.843 L 200.000 400.125 200.000 387.696 C 200.000 380.860,199.854 375.207,199.675 375.133 C 199.496 375.060,198.017 373.200,196.388 371.000 C 194.760 368.800,193.323 366.910,193.194 366.800 C 193.066 366.690,192.529 365.970,192.000 365.200 C 191.471 364.430,190.931 363.710,190.800 363.600 C 190.669 363.490,190.125 362.770,189.592 362.000 C 189.058 361.230,188.475 360.420,188.296 360.200 C 188.118 359.980,185.626 356.650,182.760 352.800 C 179.894 348.950,177.333 345.530,177.069 345.200 C 176.805 344.870,176.150 343.970,175.614 343.200 C 175.077 342.430,174.531 341.710,174.400 341.600 C 174.269 341.490,173.723 340.770,173.186 340.000 C 172.161 338.527,171.905 338.194,170.194 336.102 L 169.132 334.804 164.866 337.062 C 162.520 338.304,158.620 340.349,156.200 341.606 C 150.974 344.322,145.155 347.372,140.200 349.992 C 124.364 358.365,123.200 358.801,123.200 356.359 C 123.200 355.663,123.033 354.442,122.828 353.646 C 122.624 352.851,122.246 351.120,121.990 349.800 C 121.733 348.480,121.355 346.590,121.149 345.600 C 120.943 344.610,119.791 338.670,118.588 332.400 C 117.386 326.130,116.204 320.010,115.962 318.800 C 115.721 317.590,115.345 315.700,115.127 314.600 C 114.909 313.500,114.566 311.949,114.365 311.154 C 114.164 310.358,114.000 309.296,114.000 308.793 C 114.000 307.882,113.987 307.880,109.900 308.164 C 107.645 308.321,99.680 308.625,92.200 308.839 C 84.720 309.053,75.209 309.332,71.064 309.458 C 66.919 309.584,63.377 309.533,63.194 309.344 C 62.796 308.934,63.227 306.770,65.135 299.600 C 65.873 296.826,67.947 288.856,70.861 277.600 C 71.516 275.070,72.415 271.650,72.858 270.000 C 74.008 265.715,74.428 263.981,74.673 262.496 C 74.792 261.779,75.049 261.094,75.244 260.973 C 75.944 260.540,75.577 260.027,74.100 259.377 C 73.275 259.014,71.880 258.394,71.000 258.000 C 70.120 257.606,68.770 257.013,68.000 256.684 C 67.230 256.354,65.745 255.705,64.700 255.242 C 63.655 254.779,62.035 254.061,61.100 253.647 C 60.165 253.233,58.050 252.308,56.400 251.592 C 54.750 250.876,52.500 249.885,51.400 249.390 C 48.750 248.197,45.726 246.856,44.000 246.110 C 43.230 245.777,41.700 245.093,40.600 244.590 C 39.500 244.087,37.700 243.281,36.600 242.799 C 35.500 242.318,34.077 241.671,33.439 241.362 C 32.800 241.053,32.035 240.800,31.739 240.800 C 31.442 240.800,31.200 240.633,31.200 240.428 C 31.200 240.223,30.795 239.998,30.300 239.928 C 28.924 239.732,29.007 238.394,30.494 236.798 C 31.734 235.468,32.562 234.503,38.186 227.831 C 39.499 226.274,40.971 224.550,41.458 224.000 C 42.734 222.559,43.844 221.268,45.735 219.025 C 50.590 213.267,54.585 208.577,54.785 208.400 C 54.909 208.290,55.819 207.212,56.805 206.004 C 58.813 203.547,60.352 201.745,61.100 200.973 C 61.886 200.162,61.615 199.724,57.154 194.601 C 54.249 191.265,48.033 183.959,46.800 182.430 C 46.030 181.475,45.040 180.313,44.600 179.846 C 44.160 179.379,42.991 178.008,42.002 176.799 C 41.013 175.589,40.023 174.404,39.802 174.165 C 39.581 173.925,37.600 171.604,35.400 169.007 C 33.200 166.410,30.827 163.636,30.127 162.844 C 28.891 161.444,29.054 160.000,30.450 160.000 C 30.630 160.000,31.727 159.570,32.888 159.045 C 34.050 158.519,35.900 157.692,37.000 157.207 C 38.100 156.722,39.900 155.901,41.000 155.383 C 42.100 154.864,46.870 152.745,51.600 150.672 C 56.330 148.600,61.100 146.502,62.200 146.011 C 63.300 145.520,64.965 144.777,65.900 144.359 C 66.835 143.942,68.455 143.219,69.500 142.753 C 70.545 142.287,72.092 141.567,72.938 141.153 C 73.784 140.739,74.729 140.400,75.038 140.400 C 75.656 140.400,75.810 139.377,75.244 139.027 C 75.049 138.906,74.791 138.221,74.673 137.504 C 74.315 135.341,73.958 133.844,73.600 133.000 C 73.413 132.560,73.149 131.660,73.012 131.000 C 72.711 129.540,72.206 127.538,71.600 125.400 C 71.351 124.520,71.003 123.170,70.826 122.400 C 70.650 121.630,69.746 118.120,68.817 114.600 C 66.226 104.780,65.304 101.232,64.607 98.400 C 64.256 96.970,63.786 95.170,63.563 94.400 C 63.341 93.630,63.123 92.460,63.079 91.800 L 63.000 90.600 68.400 90.630 C 73.357 90.658,92.460 91.255,107.616 91.856 L 113.833 92.102 114.337 89.351 C 114.614 87.838,114.997 85.880,115.188 85.000 C 115.612 83.047,115.869 81.748,118.436 68.600 C 119.553 62.880,120.639 57.210,120.849 56.000 C 121.059 54.790,121.397 52.990,121.600 52.000 C 122.065 49.730,122.785 45.881,123.133 43.805 C 123.393 42.250,124.533 41.388,125.152 42.278 C 125.288 42.474,127.470 43.665,130.000 44.924 C 132.530 46.184,136.400 48.168,138.600 49.334 C 144.382 52.398,163.519 62.351,167.200 64.208 C 169.300 65.268,169.282 65.278,171.830 61.845 C 172.828 60.500,173.862 59.130,174.128 58.800 C 174.394 58.470,175.050 57.570,175.586 56.800 C 176.123 56.030,176.669 55.310,176.800 55.200 C 176.931 55.090,177.477 54.370,178.014 53.600 C 178.550 52.830,179.213 51.930,179.486 51.600 C 179.760 51.270,183.093 46.835,186.892 41.744 C 190.691 36.653,194.192 31.973,194.671 31.344 C 195.150 30.715,196.393 29.030,197.434 27.600 C 198.475 26.170,199.478 24.940,199.663 24.867 C 199.848 24.793,200.000 19.168,200.000 12.367 L 200.000 0.000 191.267 0.000 C 186.463 0.000,182.453 0.080,182.355 0.178  M -25 0 L -5 0 L -5 20 L -25 20 Z M 405 0 L 425 0 L 425 20 L 405 20 Z" stroke="none" fill="#4c9cd3" fill-rule="evenodd" transform="translate(490,0)"></path><path id="path2" d="M200.000 200.000 L 200.000 296.800 201.500 296.784 C 203.453 296.762,213.517 295.715,216.600 295.212 C 218.870 294.842,220.499 294.489,224.200 293.563 C 225.080 293.343,226.430 293.012,227.200 292.826 C 227.970 292.640,230.130 291.913,232.000 291.209 C 233.870 290.505,235.850 289.786,236.400 289.611 C 238.073 289.080,246.834 284.663,249.600 282.956 C 251.030 282.074,252.650 281.092,253.200 280.776 C 253.750 280.459,254.290 280.101,254.400 279.981 C 254.510 279.860,255.230 279.329,256.000 278.800 C 256.770 278.271,257.490 277.731,257.600 277.600 C 257.710 277.469,258.430 276.924,259.200 276.390 C 263.693 273.273,273.273 263.693,276.390 259.200 C 276.924 258.430,277.475 257.710,277.614 257.600 C 277.983 257.309,282.446 250.540,283.813 248.200 C 286.603 243.425,289.596 236.755,291.442 231.200 C 291.771 230.210,292.198 229.040,292.390 228.600 C 292.582 228.160,292.851 227.260,292.988 226.600 C 293.124 225.940,293.416 224.680,293.636 223.800 C 294.633 219.818,294.838 218.853,295.169 216.600 C 295.363 215.280,295.612 213.930,295.724 213.600 C 297.313 208.882,296.794 191.316,294.761 181.000 C 294.392 179.130,294.191 178.300,293.113 174.200 C 292.585 172.189,291.258 168.057,290.802 167.000 C 290.612 166.560,290.089 165.172,289.640 163.915 C 287.710 158.521,280.846 146.288,277.363 142.038 C 277.076 141.687,276.156 140.555,275.320 139.523 C 264.929 126.690,250.408 115.897,236.200 110.443 C 234.880 109.937,233.440 109.371,233.000 109.187 C 229.761 107.832,220.435 105.367,216.200 104.747 C 214.125 104.443,201.913 103.250,200.500 103.213 C 200.101 103.203,200.000 122.820,200.000 200.000  M -25 0 L -5 0 L -5 20 L -25 20 Z M 405 0 L 425 0 L 425 20 L 405 20 Z" stroke="none" fill="#f7f8f9" fill-rule="evenodd" transform="translate(950,0)"></path><path id="path3" d="M200.400 51.315 L 200.400 102.758 205.900 102.953 C 212.544 103.188,216.070 103.546,216.580 104.035 C 216.789 104.236,217.813 104.400,218.856 104.400 C 219.899 104.400,220.864 104.580,221.000 104.800 C 221.136 105.020,221.856 105.200,222.600 105.200 C 223.344 105.200,224.064 105.380,224.200 105.600 C 224.336 105.820,224.966 106.000,225.600 106.000 C 226.234 106.000,226.864 106.180,227.000 106.400 C 227.136 106.620,227.766 106.800,228.400 106.800 C 229.034 106.800,229.664 106.980,229.800 107.200 C 229.936 107.420,230.399 107.600,230.829 107.600 C 231.259 107.600,231.923 107.759,232.305 107.953 C 232.687 108.148,233.540 108.529,234.200 108.800 C 234.860 109.071,235.713 109.452,236.095 109.647 C 236.477 109.841,237.045 110.000,237.357 110.000 C 238.027 110.000,241.340 111.666,241.533 112.100 C 241.607 112.265,241.926 112.400,242.243 112.400 C 243.080 112.400,248.226 115.055,250.878 116.854 C 252.131 117.704,253.346 118.400,253.578 118.400 C 253.810 118.400,254.000 118.580,254.000 118.800 C 254.000 119.020,254.243 119.200,254.541 119.200 C 254.838 119.200,255.646 119.740,256.337 120.400 C 257.028 121.060,257.774 121.600,257.996 121.600 C 258.218 121.600,258.400 121.780,258.400 122.000 C 258.400 122.220,258.604 122.400,258.853 122.400 C 259.102 122.400,259.597 122.724,259.953 123.119 C 260.309 123.514,261.230 124.270,262.000 124.798 C 264.425 126.463,276.000 138.300,276.000 139.116 C 276.000 139.285,276.360 139.683,276.800 140.000 C 277.240 140.317,277.600 140.780,277.600 141.029 C 277.600 141.278,278.140 142.046,278.800 142.737 C 279.460 143.428,280.000 144.174,280.000 144.396 C 280.000 144.618,280.180 144.800,280.400 144.800 C 280.620 144.800,280.800 145.070,280.800 145.400 C 280.800 145.730,280.980 146.000,281.200 146.000 C 281.420 146.000,281.600 146.188,281.600 146.418 C 281.600 146.648,282.466 148.133,283.525 149.718 C 286.477 154.139,290.943 163.764,291.497 166.900 C 291.603 167.505,291.850 168.000,292.045 168.000 C 292.240 168.000,292.400 168.439,292.400 168.976 C 292.400 169.513,292.580 170.064,292.800 170.200 C 293.020 170.336,293.200 170.966,293.200 171.600 C 293.200 172.234,293.380 172.864,293.600 173.000 C 293.820 173.136,294.000 173.766,294.000 174.400 C 294.000 175.034,294.180 175.664,294.400 175.800 C 294.620 175.936,294.800 176.631,294.800 177.344 C 294.800 178.057,294.963 178.811,295.161 179.020 C 295.511 179.388,295.781 181.015,296.253 185.600 C 296.377 186.810,296.646 188.004,296.850 188.253 C 297.372 188.892,297.335 211.225,296.810 211.750 C 296.585 211.975,296.400 213.193,296.400 214.456 C 296.400 215.719,296.220 216.864,296.000 217.000 C 295.780 217.136,295.600 218.036,295.600 219.000 C 295.600 219.964,295.420 220.864,295.200 221.000 C 294.980 221.136,294.800 221.856,294.800 222.600 C 294.800 223.344,294.620 224.064,294.400 224.200 C 294.180 224.336,294.000 225.056,294.000 225.800 C 294.000 226.544,293.820 227.264,293.600 227.400 C 293.380 227.536,293.200 228.177,293.200 228.824 C 293.200 229.471,293.020 230.000,292.800 230.000 C 292.580 230.000,292.400 230.439,292.400 230.976 C 292.400 231.513,292.256 232.042,292.079 232.151 C 291.903 232.260,291.507 233.272,291.200 234.400 C 290.893 235.528,290.497 236.540,290.321 236.649 C 290.144 236.758,290.000 237.096,290.000 237.401 C 290.000 238.176,285.686 247.049,284.325 249.072 C 283.706 249.992,283.200 250.937,283.200 251.172 C 283.200 251.407,283.020 251.600,282.800 251.600 C 282.580 251.600,282.400 251.870,282.400 252.200 C 282.400 252.530,282.264 252.800,282.098 252.800 C 281.931 252.800,281.565 253.320,281.284 253.955 C 281.003 254.590,280.239 255.668,279.586 256.351 C 278.934 257.034,278.400 257.748,278.400 257.937 C 278.400 258.126,277.884 258.821,277.253 259.482 C 276.622 260.142,276.037 260.882,275.953 261.126 C 275.391 262.757,262.700 275.421,261.085 275.963 C 260.818 276.052,260.330 276.421,260.000 276.782 C 259.670 277.143,258.770 277.871,258.000 278.400 C 257.230 278.929,256.510 279.474,256.400 279.611 C 256.084 280.005,251.272 283.200,250.994 283.200 C 250.857 283.200,249.992 283.706,249.072 284.325 C 247.049 285.686,238.176 290.000,237.401 290.000 C 237.096 290.000,236.758 290.144,236.649 290.321 C 236.540 290.497,235.528 290.893,234.400 291.200 C 233.272 291.507,232.260 291.903,232.151 292.079 C 232.042 292.256,231.513 292.400,230.976 292.400 C 230.439 292.400,230.000 292.580,230.000 292.800 C 230.000 293.020,229.471 293.200,228.824 293.200 C 228.177 293.200,227.536 293.380,227.400 293.600 C 227.264 293.820,226.544 294.000,225.800 294.000 C 225.056 294.000,224.336 294.180,224.200 294.400 C 224.064 294.620,223.344 294.800,222.600 294.800 C 221.856 294.800,221.136 294.980,221.000 295.200 C 220.864 295.420,219.964 295.600,219.000 295.600 C 218.036 295.600,217.136 295.780,217.000 296.000 C 216.864 296.220,215.694 296.400,214.400 296.400 C 213.106 296.400,211.936 296.580,211.800 296.800 C 211.654 297.036,209.263 297.200,205.976 297.200 L 200.400 297.200 200.400 348.664 L 200.400 400.128 212.695 399.879 C 220.618 399.719,225.039 399.483,225.128 399.215 C 225.206 398.982,226.470 398.800,228.010 398.800 C 229.518 398.800,230.864 398.620,231.000 398.400 C 231.136 398.180,232.227 398.000,233.424 398.000 C 234.621 398.000,235.600 397.820,235.600 397.600 C 235.600 397.380,236.590 397.200,237.800 397.200 C 239.010 397.200,240.000 397.020,240.000 396.800 C 240.000 396.580,240.720 396.400,241.600 396.400 C 242.480 396.400,243.200 396.220,243.200 396.000 C 243.200 395.780,243.999 395.600,244.976 395.600 C 245.953 395.600,246.864 395.420,247.000 395.200 C 247.136 394.980,247.957 394.800,248.824 394.800 C 249.691 394.800,250.400 394.620,250.400 394.400 C 250.400 394.180,251.030 394.000,251.800 394.000 C 252.570 394.000,253.200 393.820,253.200 393.600 C 253.200 393.380,253.830 393.200,254.600 393.200 C 255.370 393.200,256.000 393.020,256.000 392.800 C 256.000 392.580,256.630 392.400,257.400 392.400 C 258.170 392.400,258.800 392.220,258.800 392.000 C 258.800 391.780,259.247 391.600,259.794 391.600 C 260.650 391.600,267.838 389.416,270.200 388.438 C 272.755 387.380,273.469 387.072,274.095 386.753 C 274.477 386.559,275.062 386.400,275.395 386.400 C 275.728 386.400,276.000 386.220,276.000 386.000 C 276.000 385.780,276.439 385.600,276.976 385.600 C 277.513 385.600,278.064 385.420,278.200 385.200 C 278.336 384.980,278.797 384.800,279.224 384.800 C 279.651 384.800,280.000 384.620,280.000 384.400 C 280.000 384.180,280.360 384.000,280.800 384.000 C 281.240 384.000,281.600 383.820,281.600 383.600 C 281.600 383.380,281.960 383.200,282.400 383.200 C 282.840 383.200,283.200 383.020,283.200 382.800 C 283.200 382.580,283.650 382.400,284.200 382.400 C 284.750 382.400,285.200 382.220,285.200 382.000 C 285.200 381.780,285.453 381.600,285.762 381.600 C 286.428 381.600,289.741 379.932,289.933 379.500 C 290.007 379.335,290.412 379.200,290.833 379.200 C 291.255 379.200,291.600 379.020,291.600 378.800 C 291.600 378.580,291.960 378.400,292.400 378.400 C 292.840 378.400,293.200 378.220,293.200 378.000 C 293.200 377.780,293.560 377.600,294.000 377.600 C 294.440 377.600,294.800 377.420,294.800 377.200 C 294.800 376.980,295.036 376.800,295.325 376.800 C 295.613 376.800,296.236 376.440,296.708 376.000 C 297.180 375.560,297.748 375.200,297.970 375.200 C 298.642 375.200,301.200 373.874,301.200 373.526 C 301.200 373.347,301.560 373.200,302.000 373.200 C 302.440 373.200,302.800 373.020,302.800 372.800 C 302.800 372.580,302.993 372.400,303.228 372.400 C 303.463 372.400,304.441 371.860,305.400 371.200 C 306.359 370.540,307.297 370.000,307.484 370.000 C 307.671 370.000,308.083 369.640,308.400 369.200 C 308.717 368.760,309.257 368.400,309.600 368.400 C 309.943 368.400,310.483 368.040,310.800 367.600 C 311.117 367.160,311.657 366.800,312.000 366.800 C 312.343 366.800,312.883 366.440,313.200 366.000 C 313.517 365.560,314.009 365.200,314.292 365.200 C 314.575 365.200,315.372 364.660,316.063 364.000 C 316.754 363.340,317.522 362.800,317.771 362.800 C 318.020 362.800,318.483 362.440,318.800 362.000 C 319.117 361.560,319.625 361.200,319.928 361.200 C 320.231 361.200,320.983 360.660,321.600 360.000 C 322.217 359.340,322.874 358.800,323.061 358.800 C 323.247 358.800,324.188 358.080,325.151 357.200 C 326.113 356.320,327.054 355.600,327.242 355.600 C 327.429 355.600,328.573 354.610,329.783 353.400 C 330.993 352.190,332.157 351.200,332.371 351.200 C 332.584 351.200,334.703 349.230,337.079 346.821 C 342.316 341.514,341.514 342.316,346.821 337.079 C 349.230 334.703,351.200 332.584,351.200 332.371 C 351.200 332.157,352.190 330.993,353.400 329.783 C 354.610 328.573,355.600 327.429,355.600 327.242 C 355.600 327.054,356.320 326.113,357.200 325.151 C 358.080 324.188,358.800 323.247,358.800 323.061 C 358.800 322.874,359.340 322.217,360.000 321.600 C 360.660 320.983,361.200 320.231,361.200 319.928 C 361.200 319.625,361.560 319.117,362.000 318.800 C 362.440 318.483,362.800 318.020,362.800 317.771 C 362.800 317.522,363.340 316.754,364.000 316.063 C 364.660 315.372,365.200 314.575,365.200 314.292 C 365.200 314.009,365.560 313.517,366.000 313.200 C 366.440 312.883,366.800 312.343,366.800 312.000 C 366.800 311.657,367.160 311.117,367.600 310.800 C 368.040 310.483,368.400 309.943,368.400 309.600 C 368.400 309.257,368.760 308.717,369.200 308.400 C 369.640 308.083,370.000 307.671,370.000 307.484 C 370.000 307.297,370.540 306.359,371.200 305.400 C 371.860 304.441,372.400 303.463,372.400 303.228 C 372.400 302.993,372.580 302.800,372.800 302.800 C 373.020 302.800,373.200 302.440,373.200 302.000 C 373.200 301.560,373.347 301.200,373.526 301.200 C 373.874 301.200,375.200 298.642,375.200 297.970 C 375.200 297.748,375.560 297.180,376.000 296.708 C 376.440 296.236,376.800 295.613,376.800 295.325 C 376.800 295.036,376.980 294.800,377.200 294.800 C 377.420 294.800,377.600 294.440,377.600 294.000 C 377.600 293.560,377.780 293.200,378.000 293.200 C 378.220 293.200,378.400 292.840,378.400 292.400 C 378.400 291.960,378.580 291.600,378.800 291.600 C 379.020 291.600,379.200 291.255,379.200 290.833 C 379.200 290.412,379.335 290.007,379.500 289.933 C 379.932 289.741,381.600 286.428,381.600 285.762 C 381.600 285.453,381.780 285.200,382.000 285.200 C 382.220 285.200,382.400 284.750,382.400 284.200 C 382.400 283.650,382.580 283.200,382.800 283.200 C 383.020 283.200,383.200 282.840,383.200 282.400 C 383.200 281.960,383.380 281.600,383.600 281.600 C 383.820 281.600,384.000 281.240,384.000 280.800 C 384.000 280.360,384.180 280.000,384.400 280.000 C 384.620 280.000,384.800 279.651,384.800 279.224 C 384.800 278.797,384.980 278.336,385.200 278.200 C 385.420 278.064,385.600 277.513,385.600 276.976 C 385.600 276.439,385.780 276.000,386.000 276.000 C 386.220 276.000,386.400 275.728,386.400 275.395 C 386.400 275.062,386.559 274.477,386.753 274.095 C 386.948 273.713,387.308 272.905,387.553 272.300 C 387.799 271.695,388.173 270.795,388.385 270.300 C 389.348 268.047,391.600 260.688,391.600 259.794 C 391.600 259.247,391.780 258.800,392.000 258.800 C 392.220 258.800,392.400 258.170,392.400 257.400 C 392.400 256.630,392.580 256.000,392.800 256.000 C 393.020 256.000,393.200 255.370,393.200 254.600 C 393.200 253.830,393.380 253.200,393.600 253.200 C 393.820 253.200,394.000 252.570,394.000 251.800 C 394.000 251.030,394.180 250.400,394.400 250.400 C 394.620 250.400,394.800 249.691,394.800 248.824 C 394.800 247.957,394.980 247.136,395.200 247.000 C 395.420 246.864,395.600 245.953,395.600 244.976 C 395.600 243.999,395.780 243.200,396.000 243.200 C 396.220 243.200,396.400 242.480,396.400 241.600 C 396.400 240.720,396.580 240.000,396.800 240.000 C 397.020 240.000,397.200 239.010,397.200 237.800 C 397.200 236.590,397.380 235.600,397.600 235.600 C 397.820 235.600,398.000 234.621,398.000 233.424 C 398.000 232.227,398.180 231.136,398.400 231.000 C 398.620 230.864,398.800 229.518,398.800 228.010 C 398.800 226.171,398.965 225.212,399.300 225.100 C 399.693 224.969,399.800 219.591,399.800 200.000 C 399.800 180.409,399.693 175.031,399.300 174.900 C 398.965 174.788,398.800 173.829,398.800 171.990 C 398.800 170.482,398.620 169.136,398.400 169.000 C 398.180 168.864,398.000 167.773,398.000 166.576 C 398.000 165.379,397.820 164.400,397.600 164.400 C 397.380 164.400,397.200 163.410,397.200 162.200 C 397.200 160.990,397.020 160.000,396.800 160.000 C 396.580 160.000,396.400 159.280,396.400 158.400 C 396.400 157.520,396.220 156.800,396.000 156.800 C 395.780 156.800,395.600 156.001,395.600 155.024 C 395.600 154.047,395.420 153.136,395.200 153.000 C 394.980 152.864,394.800 152.043,394.800 151.176 C 394.800 150.309,394.620 149.600,394.400 149.600 C 394.180 149.600,394.000 148.970,394.000 148.200 C 394.000 147.430,393.820 146.800,393.600 146.800 C 393.380 146.800,393.200 146.170,393.200 145.400 C 393.200 144.630,393.020 144.000,392.800 144.000 C 392.580 144.000,392.400 143.370,392.400 142.600 C 392.400 141.830,392.220 141.200,392.000 141.200 C 391.780 141.200,391.600 140.753,391.600 140.206 C 391.600 139.274,389.299 131.808,388.331 129.600 C 388.090 129.050,387.716 128.150,387.500 127.600 C 387.284 127.050,386.948 126.287,386.753 125.905 C 386.559 125.523,386.400 124.938,386.400 124.605 C 386.400 124.272,386.220 124.000,386.000 124.000 C 385.780 124.000,385.600 123.561,385.600 123.024 C 385.600 122.487,385.420 121.936,385.200 121.800 C 384.980 121.664,384.800 121.203,384.800 120.776 C 384.800 120.349,384.620 120.000,384.400 120.000 C 384.180 120.000,384.000 119.640,384.000 119.200 C 384.000 118.760,383.820 118.400,383.600 118.400 C 383.380 118.400,383.200 118.040,383.200 117.600 C 383.200 117.160,383.020 116.800,382.800 116.800 C 382.580 116.800,382.400 116.350,382.400 115.800 C 382.400 115.250,382.220 114.800,382.000 114.800 C 381.780 114.800,381.600 114.547,381.600 114.238 C 381.600 113.572,379.932 110.259,379.500 110.067 C 379.335 109.993,379.200 109.588,379.200 109.167 C 379.200 108.745,379.020 108.400,378.800 108.400 C 378.580 108.400,378.400 108.040,378.400 107.600 C 378.400 107.160,378.220 106.800,378.000 106.800 C 377.780 106.800,377.600 106.440,377.600 106.000 C 377.600 105.560,377.420 105.200,377.200 105.200 C 376.980 105.200,376.800 104.964,376.800 104.675 C 376.800 104.387,376.440 103.764,376.000 103.292 C 375.560 102.820,375.200 102.252,375.200 102.030 C 375.200 101.358,373.874 98.800,373.526 98.800 C 373.347 98.800,373.200 98.440,373.200 98.000 C 373.200 97.560,373.020 97.200,372.800 97.200 C 372.580 97.200,372.400 97.007,372.400 96.772 C 372.400 96.537,371.860 95.559,371.200 94.600 C 370.540 93.641,370.000 92.703,370.000 92.516 C 370.000 92.329,369.640 91.917,369.200 91.600 C 368.760 91.283,368.400 90.743,368.400 90.400 C 368.400 90.057,368.040 89.517,367.600 89.200 C 367.160 88.883,366.800 88.343,366.800 88.000 C 366.800 87.657,366.440 87.117,366.000 86.800 C 365.560 86.483,365.200 85.991,365.200 85.708 C 365.200 85.425,364.660 84.628,364.000 83.937 C 363.340 83.246,362.800 82.478,362.800 82.229 C 362.800 81.980,362.440 81.517,362.000 81.200 C 361.560 80.883,361.200 80.375,361.200 80.072 C 361.200 79.769,360.660 79.017,360.000 78.400 C 359.340 77.783,358.800 77.126,358.800 76.939 C 358.800 76.753,358.080 75.812,357.200 74.849 C 356.320 73.887,355.600 72.946,355.600 72.758 C 355.600 72.571,354.610 71.427,353.400 70.217 C 352.190 69.007,351.200 67.842,351.200 67.628 C 351.200 67.413,349.310 65.344,347.000 63.028 C 344.690 60.712,342.800 58.940,342.800 59.090 C 342.800 59.240,342.485 58.944,342.100 58.432 C 340.903 56.842,332.780 48.800,332.371 48.800 C 332.157 48.800,330.993 47.810,329.783 46.600 C 328.573 45.390,327.405 44.400,327.188 44.400 C 326.970 44.400,326.254 43.905,325.596 43.300 C 323.711 41.568,323.252 41.200,322.977 41.200 C 322.836 41.200,322.217 40.660,321.600 40.000 C 320.983 39.340,320.231 38.800,319.928 38.800 C 319.625 38.800,319.117 38.440,318.800 38.000 C 318.483 37.560,318.020 37.200,317.771 37.200 C 317.522 37.200,316.754 36.660,316.063 36.000 C 315.372 35.340,314.575 34.800,314.292 34.800 C 314.009 34.800,313.517 34.440,313.200 34.000 C 312.883 33.560,312.343 33.200,312.000 33.200 C 311.657 33.200,311.117 32.840,310.800 32.400 C 310.483 31.960,309.943 31.600,309.600 31.600 C 309.257 31.600,308.717 31.240,308.400 30.800 C 308.083 30.360,307.671 30.000,307.484 30.000 C 307.297 30.000,306.359 29.460,305.400 28.800 C 304.441 28.140,303.463 27.600,303.228 27.600 C 302.993 27.600,302.800 27.409,302.800 27.176 C 302.800 26.943,302.635 26.855,302.432 26.980 C 302.230 27.105,301.780 26.923,301.432 26.575 C 301.085 26.227,300.800 26.059,300.800 26.200 C 300.800 26.341,300.517 26.175,300.172 25.829 C 299.827 25.484,299.068 25.082,298.485 24.936 C 297.903 24.789,297.072 24.339,296.638 23.935 C 296.204 23.531,295.613 23.200,295.325 23.200 C 295.036 23.200,294.800 23.020,294.800 22.800 C 294.800 22.580,294.440 22.400,294.000 22.400 C 293.560 22.400,293.200 22.220,293.200 22.000 C 293.200 21.780,292.840 21.600,292.400 21.600 C 291.960 21.600,291.600 21.420,291.600 21.200 C 291.600 20.980,291.255 20.800,290.833 20.800 C 290.412 20.800,290.007 20.665,289.933 20.500 C 289.741 20.068,286.428 18.400,285.762 18.400 C 285.453 18.400,285.200 18.220,285.200 18.000 C 285.200 17.780,284.750 17.600,284.200 17.600 C 283.650 17.600,283.200 17.420,283.200 17.200 C 283.200 16.980,282.840 16.800,282.400 16.800 C 281.960 16.800,281.600 16.620,281.600 16.400 C 281.600 16.180,281.240 16.000,280.800 16.000 C 280.360 16.000,280.000 15.820,280.000 15.600 C 280.000 15.380,279.651 15.200,279.224 15.200 C 278.797 15.200,278.336 15.020,278.200 14.800 C 278.064 14.580,277.513 14.400,276.976 14.400 C 276.439 14.400,276.000 14.220,276.000 14.000 C 276.000 13.780,275.728 13.600,275.395 13.600 C 275.062 13.600,274.477 13.441,274.095 13.247 C 273.713 13.052,272.905 12.692,272.300 12.447 C 271.695 12.201,270.795 11.829,270.300 11.620 C 269.136 11.129,265.595 9.967,264.726 9.792 C 264.355 9.717,263.693 9.464,263.255 9.229 C 262.817 8.995,262.175 8.911,261.829 9.044 C 261.483 9.177,261.200 9.086,261.200 8.843 C 261.200 8.599,260.660 8.400,260.000 8.400 C 259.340 8.400,258.800 8.220,258.800 8.000 C 258.800 7.780,258.170 7.600,257.400 7.600 C 256.630 7.600,256.000 7.420,256.000 7.200 C 256.000 6.980,255.370 6.800,254.600 6.800 C 253.830 6.800,253.200 6.620,253.200 6.400 C 253.200 6.180,252.570 6.000,251.800 6.000 C 251.030 6.000,250.400 5.820,250.400 5.600 C 250.400 5.380,249.691 5.200,248.824 5.200 C 247.957 5.200,247.136 5.020,247.000 4.800 C 246.864 4.580,245.953 4.400,244.976 4.400 C 243.999 4.400,243.200 4.220,243.200 4.000 C 243.200 3.780,242.480 3.600,241.600 3.600 C 240.720 3.600,240.000 3.420,240.000 3.200 C 240.000 2.980,239.010 2.800,237.800 2.800 C 236.590 2.800,235.600 2.620,235.600 2.400 C 235.600 2.180,234.621 2.000,233.424 2.000 C 232.227 2.000,231.136 1.820,231.000 1.600 C 230.864 1.380,229.518 1.200,228.010 1.200 C 226.470 1.200,225.206 1.018,225.128 0.785 C 225.039 0.517,220.618 0.281,212.695 0.121 L 200.400 -0.128 200.400 51.315  M -25 0 L -5 0 L -5 20 L -25 20 Z M 405 0 L 425 0 L 425 20 L 405 20 Z" stroke="none" fill="#3c4444" fill-rule="evenodd" transform="translate(30,460)"></path><path id="path4" d="M197.204 27.934 C 196.003 29.620,194.918 31.090,194.792 31.200 C 194.667 31.310,191.283 35.810,187.274 41.200 C 183.264 46.590,179.760 51.270,179.486 51.600 C 179.212 51.930,178.550 52.830,178.014 53.600 C 177.477 54.370,176.931 55.090,176.800 55.200 C 176.669 55.310,176.123 56.030,175.586 56.800 C 175.050 57.570,174.394 58.470,174.128 58.800 C 173.862 59.130,172.828 60.500,171.830 61.845 C 169.282 65.278,169.300 65.268,167.200 64.208 C 163.519 62.351,144.382 52.398,138.600 49.334 C 136.400 48.168,132.530 46.184,130.000 44.924 C 127.470 43.665,125.288 42.474,125.152 42.278 C 124.533 41.388,123.393 42.250,123.133 43.805 C 122.785 45.881,122.065 49.730,121.600 52.000 C 121.397 52.990,121.059 54.790,120.849 56.000 C 120.639 57.210,119.553 62.880,118.436 68.600 C 115.869 81.748,115.612 83.047,115.188 85.000 C 114.997 85.880,114.614 87.838,114.337 89.351 L 113.833 92.102 107.616 91.856 C 92.460 91.255,73.357 90.658,68.400 90.630 L 63.000 90.600 63.079 91.800 C 63.123 92.460,63.341 93.630,63.563 94.400 C 63.786 95.170,64.256 96.970,64.607 98.400 C 65.304 101.232,66.226 104.780,68.817 114.600 C 69.746 118.120,70.650 121.630,70.826 122.400 C 71.003 123.170,71.351 124.520,71.600 125.400 C 72.206 127.538,72.711 129.540,73.012 131.000 C 73.149 131.660,73.413 132.560,73.600 133.000 C 73.958 133.844,74.315 135.341,74.673 137.504 C 74.791 138.221,75.049 138.906,75.244 139.027 C 75.810 139.377,75.656 140.400,75.038 140.400 C 74.729 140.400,73.784 140.739,72.938 141.153 C 72.092 141.567,70.545 142.287,69.500 142.753 C 68.455 143.219,66.835 143.942,65.900 144.359 C 64.965 144.777,63.300 145.520,62.200 146.011 C 61.100 146.502,56.330 148.600,51.600 150.672 C 46.870 152.745,42.100 154.864,41.000 155.383 C 39.900 155.901,38.100 156.722,37.000 157.207 C 35.900 157.692,34.050 158.519,32.888 159.045 C 31.727 159.570,30.630 160.000,30.450 160.000 C 29.054 160.000,28.891 161.444,30.127 162.844 C 30.827 163.636,33.200 166.410,35.400 169.007 C 37.600 171.604,39.581 173.925,39.802 174.165 C 40.023 174.404,41.013 175.589,42.002 176.799 C 42.991 178.008,44.160 179.379,44.600 179.846 C 45.040 180.313,46.030 181.475,46.800 182.430 C 48.033 183.959,54.249 191.265,57.154 194.601 C 62.393 200.617,62.220 199.794,58.998 203.356 C 58.777 203.600,57.790 204.790,56.804 206.000 C 55.818 207.210,54.909 208.290,54.785 208.400 C 54.585 208.577,50.590 213.267,45.735 219.025 C 43.844 221.268,42.734 222.559,41.458 224.000 C 40.971 224.550,39.499 226.274,38.186 227.831 C 32.562 234.503,31.734 235.468,30.494 236.798 C 29.007 238.394,28.924 239.732,30.300 239.928 C 30.795 239.998,31.200 240.223,31.200 240.428 C 31.200 240.633,31.442 240.800,31.739 240.800 C 32.035 240.800,32.800 241.053,33.439 241.362 C 34.077 241.671,35.500 242.318,36.600 242.799 C 37.700 243.281,39.500 244.087,40.600 244.590 C 41.700 245.093,43.230 245.777,44.000 246.110 C 45.726 246.856,48.750 248.197,51.400 249.390 C 52.500 249.885,54.750 250.876,56.400 251.592 C 58.050 252.308,60.165 253.233,61.100 253.647 C 62.035 254.061,63.655 254.779,64.700 255.242 C 65.745 255.705,67.230 256.354,68.000 256.684 C 68.770 257.013,70.120 257.606,71.000 258.000 C 71.880 258.394,73.275 259.014,74.100 259.377 C 75.577 260.027,75.944 260.540,75.244 260.973 C 75.049 261.094,74.792 261.779,74.673 262.496 C 74.428 263.981,74.008 265.715,72.858 270.000 C 72.415 271.650,71.516 275.070,70.861 277.600 C 67.947 288.856,65.873 296.826,65.135 299.600 C 63.227 306.770,62.796 308.934,63.194 309.344 C 63.377 309.533,66.919 309.584,71.064 309.458 C 75.209 309.332,84.720 309.053,92.200 308.839 C 99.680 308.625,107.645 308.321,109.900 308.164 C 113.987 307.880,114.000 307.882,114.000 308.793 C 114.000 309.296,114.167 310.358,114.372 311.154 C 114.576 311.949,114.954 313.680,115.210 315.000 C 115.467 316.320,115.842 318.210,116.044 319.200 C 116.246 320.190,117.395 326.130,118.598 332.400 C 119.800 338.670,120.985 344.790,121.231 346.000 C 121.476 347.210,121.855 349.100,122.073 350.200 C 122.291 351.300,122.634 352.851,122.835 353.646 C 123.036 354.442,123.200 355.663,123.200 356.359 C 123.200 358.801,124.364 358.365,140.200 349.992 C 145.155 347.372,150.974 344.322,156.200 341.606 C 158.620 340.349,162.520 338.304,164.866 337.062 L 169.132 334.804 170.194 336.102 C 171.905 338.194,172.161 338.527,173.186 340.000 C 173.723 340.770,174.269 341.490,174.400 341.600 C 174.531 341.710,175.077 342.430,175.614 343.200 C 176.150 343.970,176.805 344.870,177.069 345.200 C 177.333 345.530,179.894 348.950,182.760 352.800 C 185.626 356.650,188.118 359.980,188.296 360.200 C 188.475 360.420,189.058 361.230,189.592 362.000 C 190.125 362.770,190.669 363.490,190.800 363.600 C 190.931 363.710,191.471 364.430,192.000 365.200 C 192.529 365.970,193.068 366.690,193.199 366.800 C 193.329 366.910,194.797 368.841,196.460 371.091 C 198.124 373.341,199.586 375.080,199.711 374.956 C 199.835 374.831,198.462 372.810,196.659 370.465 C 194.855 368.119,192.943 365.570,192.409 364.800 C 191.875 364.030,191.331 363.310,191.200 363.200 C 191.069 363.090,190.523 362.370,189.986 361.600 C 189.450 360.830,188.796 359.930,188.532 359.600 C 188.067 359.018,174.011 340.194,172.267 337.819 C 171.790 337.169,170.919 336.089,170.332 335.419 L 169.263 334.200 166.732 335.490 C 162.371 337.712,149.953 344.173,146.400 346.070 C 144.530 347.068,140.480 349.196,137.400 350.798 C 134.320 352.401,130.142 354.581,128.116 355.644 C 124.063 357.768,124.050 357.766,123.524 354.815 C 123.107 352.481,122.466 349.085,122.009 346.800 C 121.343 343.467,121.175 342.608,120.754 340.400 C 120.524 339.190,120.184 337.480,120.000 336.600 C 119.376 333.620,117.621 324.582,116.000 316.000 C 115.315 312.370,114.575 308.967,114.357 308.437 L 113.960 307.475 106.480 307.755 C 102.366 307.910,92.880 308.198,85.400 308.397 C 77.920 308.596,69.932 308.887,67.649 309.043 L 63.498 309.327 63.685 307.963 C 63.787 307.214,64.727 303.360,65.773 299.400 C 66.819 295.440,68.209 290.130,68.863 287.600 C 69.517 285.070,70.415 281.650,70.858 280.000 C 71.301 278.350,71.829 276.325,72.032 275.500 C 72.851 272.165,73.165 270.936,73.540 269.600 C 74.428 266.436,76.000 260.274,76.000 259.959 C 76.000 259.556,76.052 259.580,59.200 252.208 C 53.810 249.850,48.410 247.469,47.200 246.918 C 44.169 245.535,42.051 244.591,40.400 243.884 C 34.337 241.288,30.107 239.296,29.881 238.931 C 29.767 238.747,30.849 237.247,32.285 235.598 C 33.721 233.949,35.355 232.060,35.916 231.400 C 36.477 230.740,37.491 229.561,38.168 228.780 C 39.579 227.153,41.152 225.297,47.982 217.200 C 50.673 214.010,53.263 210.950,53.737 210.400 C 54.212 209.850,55.590 208.233,56.800 206.806 C 58.010 205.380,59.673 203.490,60.496 202.606 C 61.318 201.723,61.993 200.668,61.996 200.262 C 61.999 199.681,56.519 192.687,53.901 189.932 C 53.623 189.639,51.656 187.330,49.530 184.800 C 47.403 182.270,45.334 179.839,44.932 179.397 C 44.529 178.955,42.850 176.978,41.200 175.002 C 39.550 173.027,37.728 170.868,37.151 170.205 C 29.612 161.541,28.897 160.400,31.011 160.400 C 31.293 160.400,32.216 160.045,33.062 159.611 C 34.781 158.729,39.937 156.400,40.170 156.400 C 40.253 156.400,41.913 155.671,43.860 154.781 C 45.807 153.890,47.760 152.998,48.200 152.798 C 48.640 152.598,52.510 150.886,56.800 148.993 C 61.090 147.100,65.140 145.311,65.800 145.018 C 66.460 144.724,67.900 144.086,69.000 143.599 C 76.608 140.233,76.309 140.475,75.627 138.228 C 75.422 137.553,75.077 136.280,74.860 135.400 C 74.643 134.520,74.247 132.990,73.979 132.000 C 73.711 131.010,73.348 129.660,73.173 129.000 C 72.374 125.993,71.866 124.108,71.556 123.000 C 71.371 122.340,70.931 120.630,70.578 119.200 C 70.225 117.770,69.759 115.970,69.542 115.200 C 69.324 114.430,69.001 113.170,68.824 112.400 C 68.646 111.630,67.858 108.570,67.073 105.600 C 62.728 89.159,62.863 90.599,65.700 90.976 C 67.584 91.227,75.367 91.484,104.884 92.267 L 113.968 92.508 114.356 91.554 C 114.570 91.029,115.312 87.630,116.006 84.000 C 118.882 68.951,119.486 65.840,120.006 63.400 C 120.193 62.520,120.551 60.630,120.800 59.200 C 121.049 57.770,121.407 55.880,121.594 55.000 C 121.905 53.543,122.180 52.164,123.229 46.800 C 124.167 42.006,123.658 42.165,129.000 44.997 C 130.760 45.931,134.990 48.140,138.400 49.908 C 141.810 51.675,146.400 54.057,148.600 55.201 C 171.558 67.135,169.329 66.394,171.800 62.909 C 172.680 61.667,176.704 56.230,180.743 50.826 C 184.782 45.422,188.419 40.550,188.826 40.000 C 189.233 39.450,191.897 35.896,194.747 32.102 C 197.597 28.307,199.807 25.128,199.658 25.036 C 199.509 24.944,198.405 26.248,197.204 27.934 M202.833 103.353 C 202.925 103.436,204.980 103.604,207.400 103.725 C 210.396 103.875,211.226 103.836,210.000 103.602 C 208.207 103.261,202.516 103.062,202.833 103.353 M213.800 104.400 C 214.240 104.589,215.140 104.735,215.800 104.725 L 217.000 104.705 215.800 104.400 C 215.140 104.232,214.240 104.086,213.800 104.075 L 213.000 104.056 213.800 104.400 M218.800 105.200 C 219.350 105.376,220.160 105.520,220.600 105.520 C 221.233 105.520,221.192 105.454,220.400 105.200 C 219.850 105.024,219.040 104.880,218.600 104.880 C 217.967 104.880,218.008 104.946,218.800 105.200 M222.200 106.000 C 222.640 106.189,223.270 106.344,223.600 106.344 C 223.978 106.344,223.904 106.217,223.400 106.000 C 222.960 105.811,222.330 105.656,222.000 105.656 C 221.622 105.656,221.696 105.783,222.200 106.000 M225.400 106.800 C 225.840 106.989,226.560 107.138,227.000 107.132 C 227.643 107.123,227.604 107.057,226.800 106.800 C 225.432 106.362,224.381 106.362,225.400 106.800 M235.600 110.074 C 236.150 110.336,237.410 110.907,238.400 111.342 C 239.390 111.777,240.335 112.203,240.500 112.290 C 240.665 112.376,240.800 112.352,240.800 112.235 C 240.800 111.968,236.933 110.196,235.600 109.853 L 234.600 109.596 235.600 110.074 M241.233 112.553 C 241.641 112.927,247.200 115.589,247.200 115.410 C 247.200 115.187,241.778 112.400,241.343 112.400 C 241.191 112.400,241.142 112.469,241.233 112.553 M248.200 116.211 C 248.640 116.569,249.540 117.126,250.200 117.450 C 251.322 118.001,251.348 117.997,250.600 117.389 C 250.160 117.031,249.260 116.474,248.600 116.150 C 247.478 115.599,247.452 115.603,248.200 116.211 M253.590 119.521 C 256.844 121.752,261.862 125.733,264.853 128.456 C 266.752 130.185,268.421 131.600,268.563 131.600 C 268.704 131.600,267.331 130.237,265.510 128.572 C 261.875 125.246,253.573 118.788,252.976 118.821 C 252.769 118.833,253.046 119.148,253.590 119.521 M272.222 135.800 C 274.141 138.000,276.092 140.383,276.556 141.095 C 277.020 141.807,277.547 142.392,277.727 142.395 C 278.218 142.403,274.740 138.100,271.551 134.757 C 269.134 132.222,269.229 132.371,272.222 135.800 M279.437 144.900 C 280.249 146.165,280.988 147.200,281.079 147.200 C 281.347 147.200,279.900 144.882,278.890 143.694 C 278.379 143.092,278.625 143.635,279.437 144.900 M282.550 149.800 C 282.874 150.460,283.431 151.360,283.789 151.800 C 284.397 152.548,284.401 152.522,283.850 151.400 C 283.526 150.740,282.969 149.840,282.611 149.400 C 282.003 148.652,281.999 148.678,282.550 149.800 M285.884 155.786 C 286.697 157.428,287.427 158.707,287.506 158.627 C 287.685 158.449,284.865 152.800,284.598 152.800 C 284.493 152.800,285.071 154.144,285.884 155.786 M289.233 162.415 C 289.181 162.759,290.643 166.777,290.922 167.056 C 291.061 167.195,291.023 166.789,290.837 166.154 C 290.443 164.810,289.280 162.100,289.233 162.415 M291.200 167.781 C 291.200 168.161,292.762 173.079,293.238 174.200 C 293.842 175.619,293.184 172.789,292.309 170.200 C 291.510 167.838,291.200 167.161,291.200 167.781 M293.606 176.233 C 293.609 176.655,293.795 177.270,294.018 177.600 C 294.315 178.038,294.352 177.876,294.156 177.000 C 293.827 175.529,293.598 175.210,293.606 176.233 M294.468 179.200 C 294.462 179.750,294.611 180.560,294.800 181.000 L 295.144 181.800 295.132 181.000 C 295.126 180.560,294.976 179.750,294.800 179.200 L 294.480 178.200 294.468 179.200 M295.240 183.633 C 295.262 184.385,295.430 185.450,295.613 186.000 C 295.829 186.646,295.866 186.220,295.719 184.800 C 295.459 182.283,295.181 181.607,295.240 183.633 M296.275 191.800 C 296.397 194.000,296.564 195.875,296.648 195.967 C 296.933 196.279,296.742 191.406,296.398 189.600 C 296.159 188.344,296.122 189.009,296.275 191.800 M296.261 207.934 C 296.082 209.988,296.023 211.757,296.132 211.865 C 296.423 212.156,296.892 207.230,296.728 205.600 C 296.648 204.799,296.448 205.797,296.261 207.934 M295.476 214.410 C 295.330 214.955,295.228 215.940,295.249 216.600 C 295.280 217.557,295.359 217.436,295.642 216.000 C 296.029 214.033,295.902 212.817,295.476 214.410 M294.578 219.778 C 294.427 220.581,294.394 221.327,294.504 221.437 C 294.614 221.547,294.827 220.981,294.978 220.178 C 295.128 219.375,295.162 218.628,295.052 218.518 C 294.942 218.408,294.728 218.975,294.578 219.778 M293.849 222.615 C 293.712 222.973,293.615 223.566,293.634 223.933 C 293.653 224.300,293.827 224.069,294.021 223.420 C 294.398 222.158,294.265 221.533,293.849 222.615 M293.049 225.815 C 292.912 226.173,292.818 226.856,292.841 227.333 C 292.867 227.881,293.003 227.686,293.210 226.803 C 293.560 225.316,293.465 224.733,293.049 225.815 M292.240 228.843 C 292.142 229.149,291.581 230.750,290.993 232.400 C 289.802 235.742,289.303 237.606,290.030 236.000 C 291.029 233.792,292.791 228.657,292.611 228.477 C 292.505 228.372,292.339 228.536,292.240 228.843 M287.625 240.713 C 286.067 243.853,285.012 246.301,285.362 245.963 C 285.762 245.577,289.238 238.305,289.092 238.159 C 289.019 238.086,288.359 239.235,287.625 240.713 M284.308 247.300 C 283.987 247.795,283.507 248.650,283.240 249.200 C 282.560 250.603,283.794 249.106,284.641 247.500 C 285.339 246.174,285.123 246.044,284.308 247.300 M279.835 254.500 C 278.614 256.380,278.375 256.907,279.154 256.000 C 280.335 254.624,282.211 251.600,281.884 251.600 C 281.792 251.600,280.870 252.905,279.835 254.500 M276.496 259.005 C 275.332 260.803,275.600 260.800,276.973 259.000 C 277.560 258.230,277.897 257.602,277.720 257.605 C 277.544 257.608,276.993 258.238,276.496 259.005 M273.861 262.229 C 273.234 262.983,272.874 263.587,273.061 263.571 C 273.247 263.555,273.913 262.925,274.539 262.171 C 275.166 261.417,275.526 260.813,275.339 260.829 C 275.153 260.845,274.487 261.475,273.861 262.229 M270.600 266.000 C 269.517 267.100,268.771 268.000,268.944 268.000 C 269.116 268.000,269.469 267.764,269.729 267.476 C 269.988 267.188,270.820 266.288,271.578 265.476 C 273.621 263.289,272.879 263.686,270.600 266.000 M265.776 270.906 C 264.224 272.546,264.139 272.694,265.376 271.597 C 268.001 269.270,268.101 269.168,267.924 268.990 C 267.829 268.896,266.863 269.758,265.776 270.906 M262.062 274.062 C 261.326 274.719,260.786 275.319,260.862 275.395 C 260.938 275.472,261.603 274.996,262.338 274.338 C 263.074 273.681,263.614 273.081,263.538 273.005 C 263.462 272.928,262.797 273.404,262.062 274.062 M258.905 276.525 C 258.193 277.006,257.608 277.544,257.605 277.720 C 257.602 277.897,258.230 277.560,259.000 276.973 C 259.770 276.386,260.400 275.836,260.400 275.753 C 260.400 275.527,260.319 275.569,258.905 276.525 M255.705 278.925 C 254.993 279.406,254.408 279.944,254.405 280.120 C 254.402 280.297,255.030 279.960,255.800 279.373 C 256.570 278.786,257.200 278.236,257.200 278.153 C 257.200 277.927,257.119 277.969,255.705 278.925 M252.081 281.372 C 250.121 282.758,249.985 283.065,251.800 282.005 C 253.678 280.910,254.325 280.391,253.780 280.420 C 253.571 280.430,252.807 280.859,252.081 281.372 M248.100 283.826 C 246.212 284.958,245.777 285.549,247.500 284.641 C 248.709 284.003,250.316 282.831,250.000 282.817 C 249.890 282.812,249.035 283.266,248.100 283.826 M241.766 287.172 C 239.585 288.256,237.926 289.156,238.080 289.172 C 238.465 289.210,246.000 285.602,246.000 285.379 C 246.000 285.078,245.856 285.139,241.766 287.172 M234.000 290.401 C 233.010 290.806,231.341 291.447,230.291 291.826 C 229.241 292.205,228.447 292.580,228.526 292.659 C 228.605 292.738,230.094 292.281,231.835 291.643 C 236.175 290.052,237.100 289.650,236.400 289.658 C 236.070 289.662,234.990 289.996,234.000 290.401 M225.600 293.206 C 225.178 293.482,225.415 293.523,226.400 293.342 C 228.125 293.025,228.451 292.798,227.167 292.806 C 226.635 292.809,225.930 292.989,225.600 293.206 M222.400 294.018 C 221.962 294.315,222.124 294.352,223.000 294.156 C 224.471 293.827,224.790 293.598,223.767 293.606 C 223.345 293.609,222.730 293.795,222.400 294.018 M219.000 294.800 L 218.200 295.144 219.000 295.132 C 219.440 295.126,220.250 294.976,220.800 294.800 L 221.800 294.480 220.800 294.468 C 220.250 294.462,219.440 294.611,219.000 294.800 M214.200 295.620 C 213.661 295.865,214.054 295.905,215.400 295.741 C 216.500 295.607,217.475 295.431,217.567 295.349 C 217.917 295.036,214.961 295.274,214.200 295.620 M206.600 296.400 L 204.200 296.666 207.000 296.685 C 208.540 296.696,210.340 296.568,211.000 296.400 C 212.577 295.999,210.226 295.999,206.600 296.400  M -25 0 L -5 0 L -5 20 L -25 20 Z M 405 0 L 425 0 L 425 20 L 405 20 Z" stroke="none" fill="#8eaa94" fill-rule="evenodd" transform="translate(490,460)"></path><path id="path5" d="M201.500 103.089 C 202.215 103.178,203.385 103.178,204.100 103.089 C 204.815 103.001,204.230 102.928,202.800 102.928 C 201.370 102.928,200.785 103.001,201.500 103.089 M217.300 104.676 C 217.685 104.776,218.315 104.776,218.700 104.676 C 219.085 104.575,218.770 104.493,218.000 104.493 C 217.230 104.493,216.915 104.575,217.300 104.676 M266.000 128.925 C 266.000 128.994,266.585 129.579,267.300 130.225 L 268.600 131.400 267.425 130.100 C 266.330 128.888,266.000 128.616,266.000 128.925 M268.800 131.725 C 268.800 131.794,269.385 132.379,270.100 133.025 L 271.400 134.200 270.225 132.900 C 269.130 131.688,268.800 131.416,268.800 131.725 M272.800 136.125 C 272.800 136.194,273.385 136.779,274.100 137.425 L 275.400 138.600 274.225 137.300 C 273.130 136.088,272.800 135.816,272.800 136.125 M281.149 147.000 C 281.365 147.440,281.834 148.160,282.193 148.600 L 282.844 149.400 282.451 148.600 C 282.235 148.160,281.766 147.440,281.407 147.000 L 280.756 146.200 281.149 147.000 M296.942 196.200 C 296.941 198.180,297.008 199.040,297.092 198.112 C 297.176 197.184,297.177 195.564,297.095 194.512 C 297.012 193.460,296.943 194.220,296.942 196.200 M296.940 204.000 C 296.940 205.870,297.009 206.635,297.093 205.700 C 297.177 204.765,297.177 203.235,297.093 202.300 C 297.009 201.365,296.940 202.130,296.940 204.000 M212.500 296.276 C 212.885 296.376,213.515 296.376,213.900 296.276 C 214.285 296.175,213.970 296.093,213.200 296.093 C 212.430 296.093,212.115 296.175,212.500 296.276 M202.512 297.095 C 203.564 297.177,205.184 297.176,206.112 297.092 C 207.040 297.008,206.180 296.941,204.200 296.942 C 202.220 296.943,201.460 297.012,202.512 297.095  M -25 0 L -5 0 L -5 20 L -25 20 Z M 405 0 L 425 0 L 425 20 L 405 20 Z" stroke="none" fill="#7c7f83" fill-rule="evenodd" transform="translate(950,460)"></path><path id="path6" d="M200.189 53.200 C 200.189 68.270,200.239 74.435,200.300 66.900 C 200.361 59.365,200.361 47.035,200.300 39.500 C 200.239 31.965,200.189 38.130,200.189 53.200 M200.175 92.200 C 200.175 98.140,200.231 100.626,200.299 97.724 C 200.367 94.822,200.367 89.962,200.299 86.924 C 200.231 83.886,200.175 86.260,200.175 92.200 M206.300 103.089 C 207.015 103.178,208.185 103.178,208.900 103.089 C 209.615 103.001,209.030 102.928,207.600 102.928 C 206.170 102.928,205.585 103.001,206.300 103.089 M296.909 191.200 C 296.909 192.190,296.987 192.595,297.082 192.100 C 297.178 191.605,297.178 190.795,297.082 190.300 C 296.987 189.805,296.909 190.210,296.909 191.200 M296.909 208.800 C 296.909 209.790,296.987 210.195,297.082 209.700 C 297.178 209.205,297.178 208.395,297.082 207.900 C 296.987 207.405,296.909 207.810,296.909 208.800 M268.581 268.900 L 267.000 270.600 268.700 269.019 C 269.635 268.149,270.400 267.384,270.400 267.319 C 270.400 267.016,270.052 267.319,268.581 268.900 M208.305 297.083 C 208.802 297.179,209.522 297.175,209.905 297.075 C 210.287 296.975,209.880 296.896,209.000 296.901 C 208.120 296.905,207.807 296.987,208.305 297.083 M200.175 308.000 C 200.175 314.050,200.231 316.525,200.299 313.500 C 200.367 310.475,200.367 305.525,200.299 302.500 C 200.231 299.475,200.175 301.950,200.175 308.000 M200.189 347.000 C 200.189 361.960,200.239 368.022,200.300 360.471 C 200.361 352.920,200.361 340.680,200.300 333.271 C 200.239 325.862,200.189 332.040,200.189 347.000  M -25 0 L -5 0 L -5 20 L -25 20 Z M 405 0 L 425 0 L 425 20 L 405 20 Z" stroke="none" fill="#5c5c62" fill-rule="evenodd" transform="translate(30,920)"></path><path id="path7" d="M200.179 13.000 C 200.179 20.260,200.233 23.286,200.299 19.725 C 200.365 16.164,200.366 10.224,200.299 6.525 C 200.233 2.826,200.179 5.740,200.179 13.000 M200.179 387.000 C 200.179 394.260,200.233 397.286,200.299 393.725 C 200.365 390.164,200.366 384.224,200.299 380.525 C 200.233 376.826,200.179 379.740,200.179 387.000  M -25 0 L -5 0 L -5 20 L -25 20 Z M 405 0 L 425 0 L 425 20 L 405 20 Z" stroke="none" fill="#545c5c" fill-rule="evenodd" transform="translate(490,920)"></path><path id="path8" d=" M -25 0 L -5 0 L -5 20 L -25 20 Z M 405 0 L 425 0 L 425 20 L 405 20 Z" stroke="none" fill="#54545c" fill-rule="evenodd" transform="translate(950,920)"></path></g></svg>